<svg xmlns:dc="http://purl.org/dc/elements/1.1/" xmlns:cc="http://creativecommons.org/ns#" xmlns:rdf="http://www.w3.org/1999/02/22-rdf-syntax-ns#" xmlns:svg="http://www.w3.org/2000/svg" xmlns="http://www.w3.org/2000/svg" viewBox="0 0 402.78668 371.70667" height="371.70667" width="402.78668" xml:space="preserve" id="svg2" version="1.1" xmlns:xlink="http://www.w3.org/1999/xlink">
 <metadata id="metadata8">
  <rdf:RDF>
   <cc:Work rdf:about="">
    <dc:format>
     image/svg+xml
    </dc:format>
    <dc:type rdf:resource="http://purl.org/dc/dcmitype/StillImage">
    </dc:type>
   </cc:Work>
  </rdf:RDF>
 </metadata>
 <defs id="defs6">
 </defs>
 <g transform="matrix(1.3333333,0,0,-1.3333333,0,371.70667)" id="g10">
  <g transform="scale(0.1)" id="g12">
   <path id="path14" style="fill:#5e6061;fill-opacity:1;fill-rule:nonzero;stroke:none" d="m 2962.47,78.7617 c 3.89,3.0781 5.83,7.4102 5.83,12.9883 0,5.5586 -1.94,9.852 -5.83,12.859 -3.88,3 -9.35,4.512 -16.38,4.512 h -19.37 V 74.1406 h 19.37 c 7.03,0 12.5,1.5391 16.38,4.6211 z m 15.51,-3.9609 c -3.22,-4.6992 -7.77,-8.0625 -13.64,-10.1211 l 20.02,-31.0195 h -15.18 l -18.26,28.1601 h -3.74 -20.23 V 33.6602 h -14.96 V 121.66 h 35.19 c 11.01,0 19.69,-2.719 26.08,-8.14 6.37,-5.43 9.57,-12.68 9.57,-21.77 0,-6.6094 -1.62,-12.2617 -4.85,-16.9492 z m -0.65,-55.8789 c 10.26,6.0078 18.37,14.2187 24.3,24.6367 5.94,10.4102 8.91,21.9297 8.91,34.543 0,12.6093 -2.89,24.0584 -8.69,34.3204 -5.79,10.258 -13.78,18.328 -23.97,24.199 -10.2,5.867 -21.67,8.801 -34.44,8.801 -12.62,0 -24.09,-3.012 -34.42,-9.024 -10.34,-6.007 -18.45,-14.187 -24.32,-24.527 -5.87,-10.34 -8.8,-21.7499 -8.8,-34.2108 0,-12.4688 2.93,-23.8594 8.8,-34.211 5.87,-10.3398 13.94,-18.5195 24.2,-24.5273 10.26,-6.0117 21.63,-9.02346 34.1,-9.02346 12.62,0 24.05,3.01176 34.33,9.02346 z m 5.6,126.2771 c 11.81,-6.75 21.09,-16.019 27.84,-27.828 6.73,-11.812 10.11,-24.8905 10.11,-39.2694 0,-14.3711 -3.44,-27.543 -10.34,-39.4922 -6.89,-11.9492 -16.28,-21.3789 -28.15,-28.2696 C 2970.5,3.44141 2957.38,0 2943,0 c -14.37,0 -27.46,3.44141 -39.27,10.3398 -11.8,6.8907 -21.12,16.2813 -27.94,28.1602 -6.81,11.8789 -10.23,24.9297 -10.23,39.1602 0,14.2187 3.42,27.2808 10.23,39.1598 6.82,11.879 16.18,21.258 28.05,28.16 11.89,6.891 25.08,10.34 39.6,10.34 14.52,0 27.69,-3.371 39.49,-10.121">
   </path>
   <path id="path16" style="fill:#d71e25;fill-opacity:1;fill-rule:nonzero;stroke:none" d="M 2787.85,0 H 0 V 2787.83 H 2787.85 V 0">
   </path>
   <path id="path18" style="fill:#ffffff;fill-opacity:1;fill-rule:nonzero;stroke:none" d="m 248.832,1730.91 h 176.379 v 215.05 L 248.832,1825.11 Z m 1948.898,-665.6 h 176.37 v 232.43 c 0,114.03 16.48,210.48 150.52,210.48 25.86,0 50.55,-4.7 75.26,-11.75 v 154.83 c -179.77,7.72 -225.78,-64.47 -225.78,-64.47 v 49.95 h -176.37 z m -386.58,141.09 c -88.23,0 -141.1,58.81 -141.1,144.64 0,85.85 52.87,144.63 141.1,144.63 88.18,0 141.11,-58.78 141.11,-144.63 0,-85.83 -52.93,-144.64 -141.11,-144.64 m 0,444.48 c -176.41,0 -317.5,-117.57 -317.5,-299.84 0,-182.25 141.09,-299.83 317.5,-299.83 176.34,0 317.48,117.58 317.48,299.83 0,182.27 -141.14,299.84 -317.48,299.84 m -647.34,-585.57 h 176.38 v 430.36 h 130.51 v 141.11 h -130.51 v 90.54 c 0,75.25 28.21,92.9 84.65,92.9 21.17,0 37.61,-4.7 57.61,-11.76 l 8.25,149.33 c -32.91,8.24 -68.23,10.59 -103.49,10.59 -191.66,0 -223.4,-105.81 -223.4,-230.47 z m -644.455,0 h 176.379 v 284.55 c 0,74.09 14.106,145.81 105.832,145.81 90.547,0 91.731,-84.65 91.731,-150.51 v -279.85 h 176.363 v 315.12 c 0,152.89 -32.94,270.48 -211.656,270.47 -139.914,-0.02 -169.328,-66.62 -169.328,-66.62 v 52.5 H 519.355 Z m -270.523,-0.02 h 176.383 v 571.48 H 248.832 v -571.48">
   </path>
  </g>
 </g>
</svg>