<svg xmlns="http://www.w3.org/2000/svg" viewBox="0 0 36 36" fill="none">
  <path d="M4 24.5c1.5.1 2.6-.1 3.5-.6v-5.8H4.4v1.3h1.7v3.6c-.3.2-.9.3-1.6.1-1.6-.4-2.3-2-2.3-3.5 0-1.8.9-3.3 2.5-3.6.7-.1 1.4 0 2 .4l.5-1.2C6.3 14.3 5.2 14 4 14.1 1.6 14.3 0 16 0 19.7c0 3.4 1.6 5.2 4 4.8zm7.2 0c.7 0 2-.2 2.7-.5l-.3-1.2c-.6.2-1.5.4-2.2.4-.9 0-1.5-.4-1.5-1.3 0-.9.7-1.3 1.7-1.3.4 0 .8.1 1.1.2l.2-1.2c-.3-.1-.8-.2-1.4-.2-1.8 0-3 1-3 2.6 0 1.6 1 2.5 2.7 2.5zm6.2 0c2 0 3.1-1 3.1-2.6s-1-2.5-3-2.5c-2 0-3.1 1-3.1 2.6 0 1.5 1 2.5 3 2.5zm0-1.2c-.9 0-1.5-.5-1.5-1.3 0-.8.5-1.3 1.5-1.3s1.5.5 1.5 1.3c0 .8-.5 1.3-1.5 1.3zm10.8 1l-.1-5.5h-1.6l-1.8 3.7-1.8-3.7H21l-.1 5.5h1.5l.1-3.4 1.4 2.9h1l1.4-2.9.1 3.4h1.8zm3 0v-2.1h1.8v-1.3h-1.8v-1h2v-1.3H29.7v5.7H33v-1z" fill="#00758F"/>
  <path d="M32.2 11.5c-.8-.2-1.8-.1-2.5.3-.2.1-.6.3-.6.6.1.1.1.2.3.3.2.2.6.4.8.6l.6.5.6.6c.4.3.8.7 1.1 1 .2.2.4.4.5.7l.1.1V16c-.1-.3-.3-.5-.5-.7-.3-.4-.6-.7-1-1-.3-.2-.5-.5-.8-.7l-.7-.5-.7-.4c-.2-.1-.5-.2-.7-.1l-.1.1.1.3.2.2.5.3.8.8.3.5.1.2.1.1c-.1 0-.2-.1-.2-.1l-.5-.2-.6-.4-.4-.3-.2-.2-.1-.2-.1-.3.1-.2.2-.2.2-.1h.3c.2 0 .4.1.6.2l.6.4.3.2.1.1c0-.1 0-.1-.1-.2l-.2-.3-.5-.4-.7-.4c-.3-.2-.7-.3-1-.4h-.1c-.3 0-.5 0-.7.1l-.4.3-.2.4c0 .2 0 .4.1.5l.2.4.4.5.6.5.5.3.9.7.5.6.2.4v.3l-.1.2-.3.2-.4.1c-.3 0-.7-.1-1-.3-.3-.2-.6-.4-.9-.7l-.9-.9c.3.5.6.9 1 1.3.4.4.9.8 1.4 1 .5.2 1 .3 1.5.2.3-.1.7-.2.9-.5.2-.3.3-.6.2-1l-.3-.8-.5-.7-.7-.7-.7-.6c-.2-.2-.5-.4-.7-.7l-.1-.3.1-.1.1-.1h.4l.5.1.8.5.5.5.1.2c0-.2-.1-.4-.2-.6l-.4-.5-.7-.6-.8-.4c-.2-.1-.4-.1-.7-.2h-.3" fill="#F29111"/>
</svg>
