<svg version="1.1" id="Layer_1" xmlns="http://www.w3.org/2000/svg" xmlns:xlink="http://www.w3.org/1999/xlink" x="0px" y="0px" viewBox="0 0 380.7 78" style="enable-background:new 0 0 380.7 78;" xml:space="preserve">
 <style type="text/css">
  .st0{fill:#FFFFFF;}
	.st1{fill:#73C92D;}
 </style>
 <g>
  <g>
   <path class="st0" d="M32.6,18.2c-2.9,0-5.5,2.3-5.7,5.3c0.2,3.1,2.7,5.5,5.9,5.5c2.9-0.2,5.3-2.5,5.5-5.5
			C38.1,20.5,35.5,18.2,32.6,18.2">
   </path>
   <path class="st0" d="M16,47.8c1.8-1,2.3-3.7,1.2-6.1c-1.2-2.3-3.7-3.9-5.5-3.1c-1.8,1-2.3,3.7-1,6.1C11.9,47.3,14.3,48.6,16,47.8">
   </path>
   <path class="st0" d="M22.3,39.6c3.1-0.2,5.5-2.7,5.3-5.7c0.2-3.1-2.3-5.7-5.3-5.7l0,0c-3.1,0.2-5.5,2.7-5.3,5.7l0,0
			C16.8,37.1,19.1,39.6,22.3,39.6">
   </path>
   <path class="st0" d="M6.8,45.9c-1,0.6-0.6,2.7,0.6,4.7c1.4,2,3.1,2.9,4.1,2.3s0.6-2.7-0.6-4.7C9.6,46.3,7.8,45.3,6.8,45.9">
   </path>
   <path class="st0" d="M48.8,47.8c2,1,4.3-0.4,5.5-2.9c1.2-2.5,0.8-5.3-1.2-6.1c-1.8-1-4.3,0.4-5.5,2.9
			C46.5,44.1,47.1,46.9,48.8,47.8">
   </path>
   <path class="st0" d="M42.8,39.6c3.1-0.2,5.5-2.7,5.3-5.7c0.2-2.9-2-5.5-4.9-5.7c-2.9-0.2-5.5,2-5.7,4.9c0,0.2,0,0.6,0,0.8
			C37.3,37.1,39.6,39.6,42.8,39.6">
   </path>
   <path class="st0" d="M57.4,50.6c1.4-2,1.6-3.9,0.6-4.7c-1-0.6-2.7,0.4-4.1,2.3c-1.4,2-1.6,3.9-0.6,4.7
			C54.3,53.5,56.1,52.5,57.4,50.6">
   </path>
   <path class="st1" d="M61.1,49c-0.4-0.2-0.2-1.6,0.4-3.3c0.6-1.6,1.6-2.9,2-2.7C64.4,43.7,61.7,49.4,61.1,49">
   </path>
   <path class="st1" d="M3.5,17c-0.8,1.4-1.6,2.7-2,4.3c0.4-0.6,0.8-1.4,1.2-2C3.1,18.6,3.3,17.8,3.5,17">
   </path>
   <path class="st1" d="M61.3,17c0.8,1.4,1.6,2.7,2,4.3c-0.4-0.6-0.8-1.4-1.2-2C61.9,18.6,61.5,17.8,61.3,17">
   </path>
   <path class="st1" d="M23.4,1.6C22.7,2,21.9,2,21.1,2c0-0.2,4.3-1.6,4.7-1.4C25,1.2,24.4,1.4,23.4,1.6">
   </path>
   <path class="st1" d="M8.2,10.7c0.2,0.2-0.4,1.4-1.4,2.5s-2,2.1-2,2C4.5,14.8,7.8,10.5,8.2,10.7">
   </path>
   <path class="st1" d="M10.7,23.2c-1.4,2.3-0.8,5.1,1,6.1c1.8,1,4.3-0.4,5.5-2.9s0.8-5.3-1.2-6.1C14.3,19.3,11.9,20.7,10.7,23.2">
   </path>
   <path class="st1" d="M2.9,30.7c0.8,0.2,2-1.4,2.3-3.5C5.7,25,5.5,23.2,4.7,23s-2,1.4-2.3,3.5C1.8,28.7,2.1,30.7,2.9,30.7">
   </path>
   <path class="st1" d="M32.6,49.4c2.9-0.2,5.3-2.7,5.1-5.7S35,38.5,32,38.7c-2.7,0.2-5.1,2.5-5.1,5.3C27,47.1,29.5,49.6,32.6,49.4">
   </path>
   <path class="st1" d="M5.3,41c-0.6-2.1-1.6-3.7-2.5-3.5c-0.8,0.2-1,2.1-0.6,4.1c0.6,2.1,1.6,3.7,2.5,3.5C5.7,44.9,5.9,43,5.3,41">
   </path>
   <path class="st1" d="M4.7,34c0,2.5,1.2,4.7,2.7,4.7s2.7-2.1,2.7-4.7S9,29.5,7.4,29.5C5.9,29.5,4.7,31.6,4.7,34">
   </path>
   <path class="st1" d="M1,30.9c-0.6,0-1,1.6-1,3.3c0,1.8,0.4,3.5,1,3.5s1-1.6,1-3.5C2,32.2,1.4,30.9,1,30.9">
   </path>
   <path class="st1" d="M18.9,17.8c1,1.8,3.7,2.3,6.2,1s3.7-3.9,2.7-5.7c-1-1.8-3.7-2.3-6.2-1S18,16,18.9,17.8">
   </path>
   <path class="st1" d="M16,9.2c-2,1.4-2.9,3.1-2.3,4.1s2.7,0.6,4.7-0.8s2.9-3.1,2.3-4.1C19.9,7.6,18,7.8,16,9.2">
   </path>
   <path class="st1" d="M7.6,17.4c-1.4,2-1.6,4.1-0.6,4.7c1,0.6,2.7-0.4,4.1-2.3c1.2-2,1.4-4.1,0.6-4.7C10.7,14.5,9,15.4,7.6,17.4">
   </path>
   <path class="st1" d="M1.4,25.2c0.4,0.2,1.2-1,2-2.7c0.6-1.8,0.8-3.1,0.4-3.3c-0.4-0.2-1.4,1-2,2.7C1.2,23.6,1,25,1.4,25.2">
   </path>
   <path class="st1" d="M27.5,54.7c1-1.8-0.2-4.3-2.7-5.7c-2.5-1.4-5.3-0.8-6.2,1c-1,1.8,0.2,4.3,2.7,5.7
			C23.8,57,26.6,56.4,27.5,54.7">
   </path>
   <path class="st1" d="M3.9,49c0.2-0.2,0-1.6-0.6-3.3c-0.6-1.6-1.6-2.9-2-2.7C0.4,43.7,3.1,49.4,3.9,49">
   </path>
   <path class="st1" d="M8,15.6c1.2-1.6,1.8-3.1,1.4-3.3c-0.4-0.4-1.8,0.6-2.7,2.1c-1.2,1.6-1.8,2.9-1.4,3.3C5.7,18,6.8,17.2,8,15.6">
   </path>
   <path class="st1" d="M27.9,8.8c0,1.6,2,2.7,4.5,2.7c2.7-0.2,4.7-1.4,4.7-2.7s-2-2.7-4.5-2.7S27.9,7.2,27.9,8.8">
   </path>
   <path class="st1" d="M18,55.3c-2-1.4-3.9-1.6-4.5-0.8c-0.6,1,0.4,2.7,2.3,4.1c2,1.4,3.9,1.6,4.7,0.8C20.9,58.4,19.9,56.6,18,55.3">
   </path>
   <path class="st1" d="M5.1,50c-0.4,0.4,0.2,1.8,1.4,3.3s2.3,2.5,2.7,2.1c0.4-0.2-0.2-1.8-1.4-3.3C6.8,50.8,5.7,49.8,5.1,50">
   </path>
   <path class="st1" d="M37.1,59c0-1.6-2.1-2.7-4.5-2.7s-4.5,1.2-4.5,2.7c0,1.6,2,2.7,4.5,2.7S37.1,60.5,37.1,59">
   </path>
   <path class="st1" d="M25,3.7c-2.1,0.6-3.7,1.6-3.5,2.3c0.2,0.8,2.1,1,4.1,0.6c2.1-0.6,3.7-1.6,3.5-2.3C28.9,3.5,27.1,3.3,25,3.7">
   </path>
   <path class="st1" d="M13.1,8c-1.6,1-2.5,2.3-2.3,2.7c0.4,0.4,1.8-0.2,3.3-1.4c1.6-1.2,2.5-2.3,2.1-2.7C16,6.2,14.5,6.8,13.1,8">
   </path>
   <path class="st1" d="M25.4,60.9c-2.1-0.6-3.9-0.2-4.1,0.6s1.4,2,3.5,2.3c2.1,0.6,3.9,0.2,4.1-0.6C29.1,62.5,27.3,61.5,25.4,60.9">
   </path>
   <path class="st1" d="M16.2,61.1c0.4-0.4-0.6-1.6-2.1-2.7c-1.6-1.2-2.9-1.8-3.3-1.4c-0.4,0.4,0.2,1.2,1.2,2
			c0.8,0.6,1.6,1.2,2.3,1.8C15.2,61.3,16,61.5,16.2,61.1">
   </path>
   <path class="st1" d="M29.1,2.3c0,0.6,1.6,1,3.3,1s3.3-0.4,3.3-1s-1.6-1-3.3-1C30.7,1.4,29.1,2,29.1,2.3">
   </path>
   <path class="st1" d="M17.6,5.3c0.2,0.4,1.6,0.2,3.3-0.4c1.8-0.6,2.9-1.6,2.7-2s-1.6-0.2-3.3,0.4C18.7,3.9,17.6,4.9,17.6,5.3">
   </path>
   <path class="st1" d="M12.1,8.2c1.2-1,2.1-2,2-2.1c-0.2-0.2-1.4,0.6-2.5,1.6s-2.1,2-2,2.1C9.8,9.8,10.7,9.2,12.1,8.2">
   </path>
   <path class="st1" d="M35.9,65.2c0-0.6-1.6-1-3.3-1c-2,0-3.3,0.4-3.3,1c0,0.6,1.6,1,3.3,1h0.6C34.8,66,35.9,65.8,35.9,65.2">
   </path>
   <path class="st1" d="M64.3,42c0,0.4,1.4-5.5,1-5.3c-0.4,0.8-0.8,1.8-0.8,2.7C64.3,40.2,64.3,41.2,64.3,42">
   </path>
   <path class="st1" d="M27.1,2c1.6-0.2,2.9-0.6,2.7-1c0-0.2-1.4-0.2-2.9,0S24,1.6,24,2C24.2,2.1,25.6,2.1,27.1,2">
   </path>
   <path class="st1" d="M17.8,4.3c1.4-0.6,2.3-1.4,2.3-1.6c0-0.2-1.2,0.2-2.5,1C16,4.3,15,5.1,15.2,5.1C15.2,5.3,16.4,4.9,17.8,4.3">
   </path>
   <path class="st1" d="M29.9,0.2c0,0.2,1.2,0.4,2.5,0.4c1.4,0,2.5-0.2,2.5-0.4S34.6,0,33.6,0h-1.2l0,0h-1C30.7,0,29.9,0.2,29.9,0.2">
   </path>
   <path class="st1" d="M48.8,20.3c-1.8,1-2.3,3.7-1.2,6.1c1.2,2.5,3.7,3.9,5.5,2.9c1.8-1,2.3-3.7,1.2-6.1
			C53.1,20.7,50.6,19.3,48.8,20.3">
   </path>
   <path class="st1" d="M60.3,23c-0.8,0.2-1.2,2-0.6,4.1c0.4,2.1,1.6,3.7,2.3,3.5c0.8-0.2,1.2-2,0.6-4.1C62.1,24.4,61.1,22.8,60.3,23
			">
   </path>
   <path class="st1" d="M62.1,37.5c-0.8-0.2-2,1.4-2.5,3.5c-0.6,2.1-0.2,3.9,0.6,4.1c0.8,0.2,2-1.4,2.5-3.5
			C63.1,39.6,62.9,37.7,62.1,37.5">
   </path>
   <path class="st1" d="M57.6,38.7c1.6,0,2.7-2.1,2.7-4.7s-1.2-4.5-2.7-4.5c-1.6,0-2.7,2.1-2.7,4.5S56.2,38.7,57.6,38.7">
   </path>
   <path class="st1" d="M64.1,30.9c-0.6,0-1,1.6-1,3.3c0,2,0.4,3.5,1,3.5c0.6,0,1-1.6,1-3.3C65,32.4,64.4,30.9,64.1,30.9">
   </path>
   <path class="st1" d="M37.1,13.1c-1,1.8,0.2,4.3,2.7,5.7c2.5,1.4,5.3,0.8,6.2-1s-0.2-4.3-2.7-5.7C40.8,10.9,38.1,11.3,37.1,13.1">
   </path>
   <path class="st1" d="M44.3,8.4c-0.6,1,0.4,2.7,2.3,4.1s3.9,1.6,4.7,0.8c0.6-1-0.4-2.7-2.3-4.1S44.9,7.6,44.3,8.4">
   </path>
   <path class="st1" d="M58,22.1c1-0.6,0.6-2.7-0.6-4.7c-1.4-2-3.1-2.9-3.9-2.3c-1.2,0.6-0.8,2.7,0.4,4.7C55.3,21.7,57,22.7,58,22.1">
   </path>
   <path class="st1" d="M63.7,25.2c0.4-0.2,0.2-1.6-0.4-3.3c-0.6-1.6-1.6-2.9-2-2.7s-0.2,1.6,0.4,3.3C62.3,24,63.3,25.4,63.7,25.2">
   </path>
   <path class="st1" d="M46.3,50c-1-1.8-3.7-2.3-6.2-1c-2.5,1.4-3.7,3.9-2.7,5.7c1,1.8,3.7,2.3,6.2,1C46.1,54.3,47.3,51.8,46.3,50">
   </path>
   <path class="st1" d="M59.8,17.8c0.4-0.4-0.2-1.8-1.4-3.3c-1.2-1.6-2.3-2.5-2.7-2.1c-0.4,0.4,0.2,1.8,1.4,3.3
			C58.2,17.2,59.4,18,59.8,17.8">
   </path>
   <path class="st1" d="M46.9,55.3c-2,1.4-2.9,3.1-2.3,4.1c0.6,1,2.7,0.6,4.5-0.8c2-1.4,2.9-3.1,2.3-4.1C51,53.7,48.8,54.1,46.9,55.3
			">
   </path>
   <path class="st1" d="M57,52.3c-1.2,1.6-1.8,2.9-1.4,3.3c0.4,0.4,1.8-0.6,2.7-2.1c1.2-1.6,1.8-2.9,1.4-3.3
			C59.4,49.8,58.2,50.8,57,52.3">
   </path>
   <path class="st1" d="M56.6,10.7c-0.2,0.2,0.4,1.2,1.4,2.5c1,1.2,2,2.1,2,2C60.3,14.8,57.2,10.5,56.6,10.7">
   </path>
   <path class="st1" d="M39.8,3.7c-2.1-0.6-3.9-0.2-4.1,0.6s1.4,2,3.5,2.3c2.1,0.6,3.9,0.2,4.1-0.6S42,4.3,39.8,3.7">
   </path>
   <path class="st1" d="M51.9,8c-1.6-1.2-2.9-1.8-3.3-1.4s0.6,1.6,2.1,2.7c1.6,1.2,2.9,1.8,3.3,1.4C54.5,10.4,53.5,9.2,51.9,8">
   </path>
   <path class="st1" d="M39.6,60.9c-2.1,0.6-3.7,1.6-3.5,2.3c0.2,0.8,2,1,4.1,0.6c2-0.6,3.7-1.6,3.5-2.3
			C43.6,60.7,41.6,60.3,39.6,60.9">
   </path>
   <path class="st1" d="M54.3,57c-0.4-0.4-1.8,0.2-3.3,1.4c-1.6,1.2-2.5,2.3-2.1,2.7c0.2,0.2,1,0,1.8-0.4c1-0.6,1.6-1.2,2.3-1.8
			C53.9,58.2,54.5,57.4,54.3,57">
   </path>
   <path class="st1" d="M43.9,4.7c1.6,0.6,3.1,0.8,3.3,0.4s-1.2-1.2-2.7-2c-1.8-0.6-3.1-0.8-3.3-0.4C41.2,3.1,42.4,4.1,43.9,4.7">
   </path>
   <path class="st1" d="M52.9,8.2c1.2,1,2.3,1.6,2.5,1.4c0.2-0.2-0.8-1.2-2-2.1c-1.2-1-2.3-1.6-2.5-1.4C50.8,6.2,51.8,7.2,52.9,8.2">
   </path>
   <path class="st1" d="M44.3,62.9c-1.6,0.6-2.9,1.6-2.7,2l6.1-2.5C47.7,61.9,46.1,62.1,44.3,62.9">
   </path>
   <path class="st1" d="M44.3,62.9c-1.6,0.6-2.9,1.6-2.7,2s6.1-2.1,6.1-2.5C47.8,61.9,46.1,62.1,44.3,62.9">
   </path>
   <path class="st1" d="M37.7,2c1.6,0.2,2.9,0.2,2.9,0s-1.2-0.6-2.9-1c-1.6-0.2-2.9-0.2-2.9,0C35,1.2,36.1,1.6,37.7,2">
   </path>
   <path class="st1" d="M47.3,4.3c1.4,0.6,2.5,1,2.5,1c0-0.2-1-0.8-2.3-1.6c-1.4-0.8-2.5-1.2-2.5-1S45.9,3.5,47.3,4.3">
   </path>
   <path class="st1" d="M41.4,1.6C42.2,2,43,2,43.7,2c0-0.2-4.3-1.6-4.7-1.4C39.8,1.2,40.6,1.4,41.4,1.6">
   </path>
   <path class="st1" d="M64.4,28.7c-0.2-1.6-0.2-2.9,0-2.9c0.6-0.2,1.2,5.7,1,5.9C65.2,31.6,64.6,30.3,64.4,28.7">
   </path>
   <path class="st1" d="M20.5,62.9c1.6,0.6,2.9,1.6,2.7,2s-6.1-2.1-6.1-2.5C17.2,61.9,18.9,62.3,20.5,62.9">
   </path>
   <path class="st1" d="M38.7,65.4c0.8-0.2,1.6-0.4,2.5-0.2c0,0.2-4.5,1.2-4.7,1C37.1,65.6,37.9,65.4,38.7,65.4">
   </path>
   <path class="st1" d="M26.6,65.4C25.8,65.2,25,65,24,65.2c0,0.2,4.5,1.2,4.7,1C28.1,65.6,27.3,65.4,26.6,65.4">
   </path>
   <path class="st0" d="M32.6,18.2c-2.9,0-5.5,2.3-5.7,5.3c0.2,3.1,2.7,5.5,5.9,5.5c2.9-0.2,5.3-2.5,5.5-5.5
			C38.1,20.5,35.5,18.2,32.6,18.2">
   </path>
   <path class="st0" d="M16,47.8c1.8-1,2.3-3.7,1.2-6.1c-1.2-2.3-3.7-3.9-5.5-3.1c-1.8,1-2.3,3.7-1,6.1C11.9,47.3,14.3,48.6,16,47.8">
   </path>
   <path class="st0" d="M22.3,39.6c3.1-0.2,5.5-2.7,5.3-5.7c0.2-3.1-2.3-5.7-5.3-5.7l0,0c-3.1,0.2-5.5,2.7-5.3,5.7l0,0
			C16.8,37.1,19.1,39.6,22.3,39.6">
   </path>
   <path class="st0" d="M6.8,45.9c-1,0.6-0.6,2.7,0.6,4.7c1.4,2,3.1,2.9,4.1,2.3s0.6-2.7-0.6-4.7C9.6,46.3,7.8,45.3,6.8,45.9">
   </path>
   <path class="st0" d="M48.8,47.8c2,1,4.3-0.4,5.5-2.9c1.2-2.5,0.8-5.3-1.2-6.1c-1.8-1-4.3,0.4-5.5,2.9
			C46.5,44.1,47.1,46.9,48.8,47.8">
   </path>
   <path class="st0" d="M42.8,39.6c3.1-0.2,5.5-2.7,5.3-5.7c0.2-2.9-2-5.5-4.9-5.7c-2.9-0.2-5.5,2-5.7,4.9c0,0.2,0,0.6,0,0.8
			C37.3,37.1,39.6,39.6,42.8,39.6">
   </path>
   <path class="st0" d="M57.4,50.6c1.4-2,1.6-3.9,0.6-4.7c-1-0.6-2.7,0.4-4.1,2.3c-1.4,2-1.6,3.9-0.6,4.7
			C54.3,53.5,56.1,52.5,57.4,50.6">
   </path>
   <path class="st1" d="M61.1,49c-0.4-0.2-0.2-1.6,0.4-3.3c0.6-1.6,1.6-2.9,2-2.7C64.4,43.7,61.7,49.4,61.1,49">
   </path>
   <path class="st1" d="M3.5,17c-0.8,1.4-1.6,2.7-2,4.3c0.4-0.6,0.8-1.4,1.2-2C3.1,18.6,3.3,17.8,3.5,17">
   </path>
   <path class="st1" d="M61.3,17c0.8,1.4,1.6,2.7,2,4.3c-0.4-0.6-0.8-1.4-1.2-2C61.9,18.6,61.5,17.8,61.3,17">
   </path>
   <path class="st1" d="M23.4,1.6C22.7,2,21.9,2,21.1,2c0-0.2,4.3-1.6,4.7-1.4C25,1.2,24.4,1.4,23.4,1.6">
   </path>
   <path class="st1" d="M8.2,10.7c0.2,0.2-0.4,1.4-1.4,2.5s-2,2.1-2,2C4.5,14.8,7.8,10.5,8.2,10.7">
   </path>
   <path class="st1" d="M10.7,23.2c-1.4,2.3-0.8,5.1,1,6.1c1.8,1,4.3-0.4,5.5-2.9s0.8-5.3-1.2-6.1C14.3,19.3,11.9,20.7,10.7,23.2">
   </path>
   <path class="st1" d="M2.9,30.7c0.8,0.2,2-1.4,2.3-3.5C5.7,25,5.5,23.2,4.7,23s-2,1.4-2.3,3.5C1.8,28.7,2.1,30.7,2.9,30.7">
   </path>
   <path class="st1" d="M32.6,49.4c2.9-0.2,5.3-2.7,5.1-5.7S35,38.5,32,38.7c-2.7,0.2-5.1,2.5-5.1,5.3C27,47.1,29.5,49.6,32.6,49.4">
   </path>
   <path class="st1" d="M5.3,41c-0.6-2.1-1.6-3.7-2.5-3.5c-0.8,0.2-1,2.1-0.6,4.1c0.6,2.1,1.6,3.7,2.5,3.5C5.7,44.9,5.9,43,5.3,41">
   </path>
   <path class="st1" d="M4.7,34c0,2.5,1.2,4.7,2.7,4.7s2.7-2.1,2.7-4.7S9,29.5,7.4,29.5C5.9,29.5,4.7,31.6,4.7,34">
   </path>
   <path class="st1" d="M1,30.9c-0.6,0-1,1.6-1,3.3c0,1.8,0.4,3.5,1,3.5s1-1.6,1-3.5C2,32.2,1.4,30.9,1,30.9">
   </path>
   <path class="st1" d="M18.9,17.8c1,1.8,3.7,2.3,6.2,1s3.7-3.9,2.7-5.7c-1-1.8-3.7-2.3-6.2-1S18,16,18.9,17.8">
   </path>
   <path class="st1" d="M16,9.2c-2,1.4-2.9,3.1-2.3,4.1s2.7,0.6,4.7-0.8s2.9-3.1,2.3-4.1C19.9,7.6,18,7.8,16,9.2">
   </path>
   <path class="st1" d="M7.6,17.4c-1.4,2-1.6,4.1-0.6,4.7c1,0.6,2.7-0.4,4.1-2.3c1.2-2,1.4-4.1,0.6-4.7C10.7,14.5,9,15.4,7.6,17.4">
   </path>
   <path class="st1" d="M1.4,25.2c0.4,0.2,1.2-1,2-2.7c0.6-1.8,0.8-3.1,0.4-3.3c-0.4-0.2-1.4,1-2,2.7C1.2,23.6,1,25,1.4,25.2">
   </path>
   <path class="st1" d="M27.5,54.7c1-1.8-0.2-4.3-2.7-5.7c-2.5-1.4-5.3-0.8-6.2,1c-1,1.8,0.2,4.3,2.7,5.7
			C23.8,57,26.6,56.4,27.5,54.7">
   </path>
   <path class="st1" d="M3.9,49c0.2-0.2,0-1.6-0.6-3.3c-0.6-1.6-1.6-2.9-2-2.7C0.4,43.7,3.1,49.4,3.9,49">
   </path>
   <path class="st1" d="M8,15.6c1.2-1.6,1.8-3.1,1.4-3.3c-0.4-0.4-1.8,0.6-2.7,2.1c-1.2,1.6-1.8,2.9-1.4,3.3C5.7,18,6.8,17.2,8,15.6">
   </path>
   <path class="st1" d="M27.9,8.8c0,1.6,2,2.7,4.5,2.7c2.7-0.2,4.7-1.4,4.7-2.7s-2-2.7-4.5-2.7S27.9,7.2,27.9,8.8">
   </path>
   <path class="st1" d="M18,55.3c-2-1.4-3.9-1.6-4.5-0.8c-0.6,1,0.4,2.7,2.3,4.1c2,1.4,3.9,1.6,4.7,0.8C20.9,58.4,19.9,56.6,18,55.3">
   </path>
   <path class="st1" d="M5.1,50c-0.4,0.4,0.2,1.8,1.4,3.3s2.3,2.5,2.7,2.1c0.4-0.2-0.2-1.8-1.4-3.3C6.8,50.8,5.7,49.8,5.1,50">
   </path>
   <path class="st1" d="M37.1,59c0-1.6-2.1-2.7-4.5-2.7s-4.5,1.2-4.5,2.7c0,1.6,2,2.7,4.5,2.7S37.1,60.5,37.1,59">
   </path>
   <path class="st1" d="M25,3.7c-2.1,0.6-3.7,1.6-3.5,2.3c0.2,0.8,2.1,1,4.1,0.6c2.1-0.6,3.7-1.6,3.5-2.3C28.9,3.5,27.1,3.3,25,3.7">
   </path>
   <path class="st1" d="M13.1,8c-1.6,1-2.5,2.3-2.3,2.7c0.4,0.4,1.8-0.2,3.3-1.4c1.6-1.2,2.5-2.3,2.1-2.7C16,6.2,14.5,6.8,13.1,8">
   </path>
   <path class="st1" d="M25.4,60.9c-2.1-0.6-3.9-0.2-4.1,0.6s1.4,2,3.5,2.3c2.1,0.6,3.9,0.2,4.1-0.6C29.1,62.5,27.3,61.5,25.4,60.9">
   </path>
   <path class="st1" d="M16.2,61.1c0.4-0.4-0.6-1.6-2.1-2.7c-1.6-1.2-2.9-1.8-3.3-1.4c-0.4,0.4,0.2,1.2,1.2,2
			c0.8,0.6,1.6,1.2,2.3,1.8C15.2,61.3,16,61.5,16.2,61.1">
   </path>
   <path class="st1" d="M29.1,2.3c0,0.6,1.6,1,3.3,1s3.3-0.4,3.3-1s-1.6-1-3.3-1C30.7,1.4,29.1,2,29.1,2.3">
   </path>
   <path class="st1" d="M17.6,5.3c0.2,0.4,1.6,0.2,3.3-0.4c1.8-0.6,2.9-1.6,2.7-2s-1.6-0.2-3.3,0.4C18.7,3.9,17.6,4.9,17.6,5.3">
   </path>
   <path class="st1" d="M12.1,8.2c1.2-1,2.1-2,2-2.1c-0.2-0.2-1.4,0.6-2.5,1.6s-2.1,2-2,2.1C9.8,9.8,10.7,9.2,12.1,8.2">
   </path>
   <path class="st1" d="M35.9,65.2c0-0.6-1.6-1-3.3-1c-2,0-3.3,0.4-3.3,1c0,0.6,1.6,1,3.3,1h0.6C34.8,66,35.9,65.8,35.9,65.2">
   </path>
   <path class="st1" d="M64.3,42c0,0.4,1.4-5.5,1-5.3c-0.4,0.8-0.8,1.8-0.8,2.7C64.3,40.2,64.3,41.2,64.3,42">
   </path>
   <path class="st1" d="M27.1,2c1.6-0.2,2.9-0.6,2.7-1c0-0.2-1.4-0.2-2.9,0S24,1.6,24,2C24.2,2.1,25.6,2.1,27.1,2">
   </path>
   <path class="st1" d="M17.8,4.3c1.4-0.6,2.3-1.4,2.3-1.6c0-0.2-1.2,0.2-2.5,1C16,4.3,15,5.1,15.2,5.1C15.2,5.3,16.4,4.9,17.8,4.3">
   </path>
   <path class="st1" d="M29.9,0.2c0,0.2,1.2,0.4,2.5,0.4c1.4,0,2.5-0.2,2.5-0.4S34.6,0,33.6,0h-1.2l0,0h-1C30.7,0,29.9,0.2,29.9,0.2">
   </path>
   <path class="st1" d="M48.8,20.3c-1.8,1-2.3,3.7-1.2,6.1c1.2,2.5,3.7,3.9,5.5,2.9c1.8-1,2.3-3.7,1.2-6.1
			C53.1,20.7,50.6,19.3,48.8,20.3">
   </path>
   <path class="st1" d="M60.3,23c-0.8,0.2-1.2,2-0.6,4.1c0.4,2.1,1.6,3.7,2.3,3.5c0.8-0.2,1.2-2,0.6-4.1C62.1,24.4,61.1,22.8,60.3,23
			">
   </path>
   <path class="st1" d="M62.1,37.5c-0.8-0.2-2,1.4-2.5,3.5c-0.6,2.1-0.2,3.9,0.6,4.1c0.8,0.2,2-1.4,2.5-3.5
			C63.1,39.6,62.9,37.7,62.1,37.5">
   </path>
   <path class="st1" d="M57.6,38.7c1.6,0,2.7-2.1,2.7-4.7s-1.2-4.5-2.7-4.5c-1.6,0-2.7,2.1-2.7,4.5S56.2,38.7,57.6,38.7">
   </path>
   <path class="st1" d="M64.1,30.9c-0.6,0-1,1.6-1,3.3c0,2,0.4,3.5,1,3.5c0.6,0,1-1.6,1-3.3C65,32.4,64.4,30.9,64.1,30.9">
   </path>
   <path class="st1" d="M37.1,13.1c-1,1.8,0.2,4.3,2.7,5.7c2.5,1.4,5.3,0.8,6.2-1s-0.2-4.3-2.7-5.7C40.8,10.9,38.1,11.3,37.1,13.1">
   </path>
   <path class="st1" d="M44.3,8.4c-0.6,1,0.4,2.7,2.3,4.1s3.9,1.6,4.7,0.8c0.6-1-0.4-2.7-2.3-4.1S44.9,7.6,44.3,8.4">
   </path>
   <path class="st1" d="M58,22.1c1-0.6,0.6-2.7-0.6-4.7c-1.4-2-3.1-2.9-3.9-2.3c-1.2,0.6-0.8,2.7,0.4,4.7C55.3,21.7,57,22.7,58,22.1">
   </path>
   <path class="st1" d="M63.7,25.2c0.4-0.2,0.2-1.6-0.4-3.3c-0.6-1.6-1.6-2.9-2-2.7s-0.2,1.6,0.4,3.3C62.3,24,63.3,25.4,63.7,25.2">
   </path>
   <path class="st1" d="M46.3,50c-1-1.8-3.7-2.3-6.2-1c-2.5,1.4-3.7,3.9-2.7,5.7c1,1.8,3.7,2.3,6.2,1C46.1,54.3,47.3,51.8,46.3,50">
   </path>
   <path class="st1" d="M59.8,17.8c0.4-0.4-0.2-1.8-1.4-3.3c-1.2-1.6-2.3-2.5-2.7-2.1c-0.4,0.4,0.2,1.8,1.4,3.3
			C58.2,17.2,59.4,18,59.8,17.8">
   </path>
   <path class="st1" d="M46.9,55.3c-2,1.4-2.9,3.1-2.3,4.1c0.6,1,2.7,0.6,4.5-0.8c2-1.4,2.9-3.1,2.3-4.1C51,53.7,48.8,54.1,46.9,55.3
			">
   </path>
   <path class="st1" d="M57,52.3c-1.2,1.6-1.8,2.9-1.4,3.3c0.4,0.4,1.8-0.6,2.7-2.1c1.2-1.6,1.8-2.9,1.4-3.3
			C59.4,49.8,58.2,50.8,57,52.3">
   </path>
   <path class="st1" d="M56.6,10.7c-0.2,0.2,0.4,1.2,1.4,2.5c1,1.2,2,2.1,2,2C60.3,14.8,57.2,10.5,56.6,10.7">
   </path>
   <path class="st1" d="M39.8,3.7c-2.1-0.6-3.9-0.2-4.1,0.6s1.4,2,3.5,2.3c2.1,0.6,3.9,0.2,4.1-0.6S42,4.3,39.8,3.7">
   </path>
   <path class="st1" d="M51.9,8c-1.6-1.2-2.9-1.8-3.3-1.4s0.6,1.6,2.1,2.7c1.6,1.2,2.9,1.8,3.3,1.4C54.5,10.4,53.5,9.2,51.9,8">
   </path>
   <path class="st1" d="M39.6,60.9c-2.1,0.6-3.7,1.6-3.5,2.3c0.2,0.8,2,1,4.1,0.6c2-0.6,3.7-1.6,3.5-2.3
			C43.6,60.7,41.6,60.3,39.6,60.9">
   </path>
   <path class="st1" d="M54.3,57c-0.4-0.4-1.8,0.2-3.3,1.4c-1.6,1.2-2.5,2.3-2.1,2.7c0.2,0.2,1,0,1.8-0.4c1-0.6,1.6-1.2,2.3-1.8
			C53.9,58.2,54.5,57.4,54.3,57">
   </path>
   <path class="st1" d="M43.9,4.7c1.6,0.6,3.1,0.8,3.3,0.4s-1.2-1.2-2.7-2c-1.8-0.6-3.1-0.8-3.3-0.4C41.2,3.1,42.4,4.1,43.9,4.7">
   </path>
   <path class="st1" d="M52.9,8.2c1.2,1,2.3,1.6,2.5,1.4c0.2-0.2-0.8-1.2-2-2.1c-1.2-1-2.3-1.6-2.5-1.4C50.8,6.2,51.8,7.2,52.9,8.2">
   </path>
   <path class="st1" d="M44.3,62.9c-1.6,0.6-2.9,1.6-2.7,2l6.1-2.5C47.7,61.9,46.1,62.1,44.3,62.9">
   </path>
   <path class="st1" d="M44.3,62.9c-1.6,0.6-2.9,1.6-2.7,2s6.1-2.1,6.1-2.5C47.8,61.9,46.1,62.1,44.3,62.9">
   </path>
   <path class="st1" d="M37.7,2c1.6,0.2,2.9,0.2,2.9,0s-1.2-0.6-2.9-1c-1.6-0.2-2.9-0.2-2.9,0C35,1.2,36.1,1.6,37.7,2">
   </path>
   <path class="st1" d="M47.3,4.3c1.4,0.6,2.5,1,2.5,1c0-0.2-1-0.8-2.3-1.6c-1.4-0.8-2.5-1.2-2.5-1S45.9,3.5,47.3,4.3">
   </path>
   <path class="st1" d="M41.4,1.6C42.2,2,43,2,43.7,2c0-0.2-4.3-1.6-4.7-1.4C39.8,1.2,40.6,1.4,41.4,1.6">
   </path>
   <path class="st1" d="M64.4,28.7c-0.2-1.6-0.2-2.9,0-2.9c0.6-0.2,1.2,5.7,1,5.9C65.2,31.6,64.6,30.3,64.4,28.7">
   </path>
   <path class="st1" d="M20.5,62.9c1.6,0.6,2.9,1.6,2.7,2s-6.1-2.1-6.1-2.5C17.2,61.9,18.9,62.3,20.5,62.9">
   </path>
   <path class="st1" d="M38.7,65.4c0.8-0.2,1.6-0.4,2.5-0.2c0,0.2-4.5,1.2-4.7,1C37.1,65.6,37.9,65.4,38.7,65.4">
   </path>
   <path class="st1" d="M26.6,65.4C25.8,65.2,25,65,24,65.2c0,0.2,4.5,1.2,4.7,1C28.1,65.6,27.3,65.4,26.6,65.4">
   </path>
  </g>
  <g>
   <path class="st0" d="M374.4,25.2c2.5-0.8,5.3,0.4,6.1,2.9c0.4,1,0.4,2.1,0,3.1c-0.4,1.4-1.6,2.5-2.9,2.9c-2.5,0.8-5.3-0.4-6.1-2.9
			c-0.4-1-0.4-2.1,0-3.1C372,26.8,373,25.6,374.4,25.2 M375,33.6c2.1,0.6,4.3-0.8,4.9-2.9c0.6-2.1-0.8-4.3-2.9-4.9
			c-2.1-0.6-4.3,0.8-4.9,2.9c-0.2,0.6-0.2,1.4,0,2C372.6,32,373.6,33.2,375,33.6 M374.2,27h2.1c1.4,0,2,0.6,2,1.6
			c0,0.8-0.4,1.4-1.2,1.6l0,0l1.4,2.3h-1l-1.4-2.1h-0.8v2.1h-1L374.2,27L374.2,27z M375.2,29.3h0.8c0.6,0,1.4,0,1.4-0.8
			c0-0.8-0.8-0.8-1.4-0.8h-0.8V29.3z">
   </path>
   <path class="st0" d="M107.6,7L132,60.3c0.2,0.4,0,0.8-0.4,1c-0.2,0-0.2,0-0.4,0h-5.7c-0.4,0-0.6-0.2-0.8-0.4L119.3,49
			c-0.2-0.2-0.4-0.4-0.8-0.4H94.9c-0.4,0-0.6,0.2-0.8,0.4l-5.5,11.9c-0.2,0.2-0.4,0.4-0.8,0.4h-5.5c-0.4,0-0.8-0.4-0.8-0.8
			c0-0.2,0-0.2,0-0.4L106.2,7c0.2-0.4,0.6-0.6,1-0.4C107.4,6.8,107.6,7,107.6,7 M116.2,41.4l-8.6-18.7c-0.2-0.4-0.6-0.6-1-0.4
			c-0.2,0-0.4,0.2-0.4,0.4l-8.6,18.7c-0.2,0.4,0,0.8,0.4,1c0,0,0.2,0,0.4,0h17.2c0.4,0,0.8-0.4,0.8-0.8
			C116.2,41.6,116.2,41.4,116.2,41.4">
   </path>
   <path class="st0" d="M139.1,12.7l5.1-2.5c0.4-0.2,0.8,0,1,0.4c0,0.2,0,0.2,0,0.4v50c0,0.4-0.4,0.8-0.8,0.8h-5.1
			c-0.4,0-0.8-0.4-0.8-0.8V13.3C138.7,13.1,138.7,12.7,139.1,12.7">
   </path>
   <path class="st0" d="M154.3,5.5l5.1-2.5c0.4-0.2,0.8,0,1,0.4c0,0.2,0,0.2,0,0.4v57c0,0.4-0.4,0.8-0.8,0.8h-5.1
			c-0.4,0-0.8-0.4-0.8-0.8V6.2C153.9,5.9,154.1,5.7,154.3,5.5">
   </path>
   <path class="st0" d="M186.9,35c-0.4,0.2-0.8,0.2-1,0c-1.8-2-4.1-2.9-6.6-2.9c-3.1,0-5.9,1.4-5.9,3.9c0,4.1,5.9,4.7,8.8,5.5
			c5.7,1.4,10.2,3.5,10.2,10.2c0,7.8-7.2,10.9-14.1,10.9c-5.5,0-9.6-1.4-12.9-5.5c-0.2-0.4-0.2-0.8,0.2-1l3.9-3.1
			c0.4-0.2,0.8-0.2,1,0c2,2,4.5,3.7,8,3.7c3.3,0,7-1.4,7-4.3c0-3.9-5.5-4.7-8.4-5.3c-5.7-1.4-10.5-3.1-10.5-10
			c0-7.2,6.6-10.7,13.1-10.7c4.3,0,8.8,1.4,11.5,5.1c0.2,0.4,0.2,0.8-0.2,1L186.9,35z">
   </path>
   <path class="st0" d="M223.8,35.5c-0.4,0.2-0.8,0.2-1,0c-2.1-2.1-5.1-3.5-8.2-3.3c-7.2,0-10.7,5.9-10.7,12.3s4.3,11.7,11.1,11.7
			c2.9,0.2,5.9-1.2,7.8-3.3c0.2-0.4,0.8-0.4,1.2,0l0,0l3.5,3.5c0.2,0.4,0.2,0.8,0,1c-3.3,3.3-7.6,4.7-12.3,4.9
			c-10,0.2-18.4-7.8-18.6-18v-0.2c0-10.7,7.2-18.4,18.2-18.4c4.7-0.2,9.4,1.6,12.7,4.9c0.4,0.4,0.4,0.8,0,1.2l0,0L223.8,35.5z">
   </path>
   <path class="st0" d="M234.9,26.8h5.1c0.4,0,0.8,0.4,0.8,0.8V32h0.2c1.8-3.7,6.1-6.2,10.4-6.2c0.8,0,1.6,0,2.3,0.2
			c0.4,0,0.6,0.4,0.6,0.8l-0.2,5.7c0,0.4-0.4,0.8-0.8,0.8c0,0,0,0-0.2,0c-0.8-0.2-1.6-0.2-2.3-0.2c-6.4,0-10,3.5-10,11.1v16.6
			c0,0.4-0.4,0.8-0.8,0.8h-5.1c-0.4,0-0.8-0.4-0.8-0.8V27.5C234.2,27.1,234.6,26.8,234.9,26.8">
   </path>
   <path class="st0" d="M262.3,9.8c2.5-0.8,5.3,0.6,6.1,2.9c0.8,2.5-0.6,5.3-2.9,6.1c-2.5,0.8-5.3-0.6-6.1-2.9c-0.4-1-0.4-2.1,0-3.1
			C259.7,11.3,260.9,10.2,262.3,9.8 M261.3,26.8h5.1c0.4,0,0.8,0.4,0.8,0.8v33.2c0,0.4-0.4,0.8-0.8,0.8h-5.1c-0.4,0-0.8-0.4-0.8-0.8
			V27.5C260.5,27.1,260.9,26.8,261.3,26.8">
   </path>
   <path class="st0" d="M276,26.8h5.1c0.4,0,0.8,0.4,0.8,0.8v4.3h0.2c2.5-3.7,7.4-5.9,12.1-5.9c10.7,0,17.6,8,17.6,18.2
			c0,10.4-7,18.2-17.6,18.2c-4.9,0-9.8-2.3-12.1-5.9h-0.2v18.4c0,0.2-0.2,0.6-0.4,0.6l-5.1,2.5c-0.4,0.2-0.8,0-1-0.4
			c0-0.2,0-0.2,0-0.4V27.5C275.4,27.1,275.6,26.8,276,26.8L276,26.8 M281.8,43c-0.4,7.6,4.1,13.3,11.5,13.1
			c6.1-0.2,10.9-4.9,11.3-10.9c0.4-7.6-4.1-13.3-11.5-13.1C287.1,32.2,282.2,36.9,281.8,43">
   </path>
   <path class="st0" d="M363.3,35c-0.4,0.2-0.8,0.2-1,0c-1.8-2-4.1-2.9-6.6-2.9c-3.1,0-5.9,1.4-5.9,3.9c0,4.1,5.9,4.7,8.8,5.5
			c5.7,1.4,10.2,3.5,10.2,10.2c0,7.8-7.2,10.9-14.1,10.9c-5.5,0-9.6-1.4-12.9-5.5c-0.2-0.4-0.2-0.8,0.2-1l3.9-3.1
			c0.4-0.2,0.8-0.2,1,0c2,2,4.5,3.7,8,3.7c3.3,0,7-1.4,7-4.3c0-3.9-5.5-4.7-8.4-5.3c-5.7-1.4-10.5-3.1-10.5-10
			c0-7.2,6.6-10.7,13.1-10.7c4.3,0,8.8,1.4,11.5,5.1c0.2,0.4,0.2,0.8-0.2,1L363.3,35z">
   </path>
   <path class="st0" d="M326.5,48.2V34c0-0.4,0.4-0.8,0.8-0.8l0,0h5.9c0.2,0,0.6-0.2,0.6-0.4l2.5-5.1c0.2-0.4,0-0.8-0.4-1
			c-0.2,0-0.2,0-0.4,0h-8.4c-0.4,0-0.8-0.4-0.8-0.8l0,0v-9c0-0.4-0.4-0.8-0.8-0.8c-0.2,0-0.2,0-0.4,0l-5.1,2.5
			c-0.2,0.2-0.4,0.4-0.4,0.6v6.2c0,0.4-0.4,0.8-0.8,0.8h-3.5c-0.4,0-0.8,0.4-0.8,0.8v5.1c0,0.4,0.4,0.8,0.8,0.8h3.5
			c0.4,0,0.8,0.4,0.8,0.8v16.6c0,5.5,0.2,11.7,10.4,11.7c1.8,0,3.7-0.4,5.5-1c0.2-0.2,0.4-0.4,0.4-0.8v-4.3c0-0.4-0.4-0.8-0.8-0.8
			h-0.2c-1.2,0.4-2.3,0.6-3.7,0.6C326.5,56.2,326.5,52.1,326.5,48.2">
   </path>
   <path class="st0" d="M374.4,25.2c2.5-0.8,5.3,0.4,6.1,2.9c0.4,1,0.4,2.1,0,3.1c-0.4,1.4-1.6,2.5-2.9,2.9c-2.5,0.8-5.3-0.4-6.1-2.9
			c-0.4-1-0.4-2.1,0-3.1C372,26.8,373,25.6,374.4,25.2 M375,33.6c2.1,0.6,4.3-0.8,4.9-2.9c0.6-2.1-0.8-4.3-2.9-4.9
			c-2.1-0.6-4.3,0.8-4.9,2.9c-0.2,0.6-0.2,1.4,0,2C372.6,32,373.6,33.2,375,33.6 M374.2,27h2.1c1.4,0,2,0.6,2,1.6
			c0,0.8-0.4,1.4-1.2,1.6l0,0l1.4,2.3h-1l-1.4-2.1h-0.8v2.1h-1L374.2,27L374.2,27z M375.2,29.3h0.8c0.6,0,1.4,0,1.4-0.8
			c0-0.8-0.8-0.8-1.4-0.8h-0.8V29.3z">
   </path>
   <path class="st0" d="M107.6,7L132,60.3c0.2,0.4,0,0.8-0.4,1c-0.2,0-0.2,0-0.4,0h-5.7c-0.4,0-0.6-0.2-0.8-0.4L119.3,49
			c-0.2-0.2-0.4-0.4-0.8-0.4H94.9c-0.4,0-0.6,0.2-0.8,0.4l-5.5,11.9c-0.2,0.2-0.4,0.4-0.8,0.4h-5.5c-0.4,0-0.8-0.4-0.8-0.8
			c0-0.2,0-0.2,0-0.4L106.2,7c0.2-0.4,0.6-0.6,1-0.4C107.4,6.8,107.6,7,107.6,7 M116.2,41.4l-8.6-18.7c-0.2-0.4-0.6-0.6-1-0.4
			c-0.2,0-0.4,0.2-0.4,0.4l-8.6,18.7c-0.2,0.4,0,0.8,0.4,1c0,0,0.2,0,0.4,0h17.2c0.4,0,0.8-0.4,0.8-0.8
			C116.2,41.6,116.2,41.4,116.2,41.4">
   </path>
   <path class="st0" d="M139.1,12.7l5.1-2.5c0.4-0.2,0.8,0,1,0.4c0,0.2,0,0.2,0,0.4v50c0,0.4-0.4,0.8-0.8,0.8h-5.1
			c-0.4,0-0.8-0.4-0.8-0.8V13.3C138.7,13.1,138.7,12.7,139.1,12.7">
   </path>
   <path class="st0" d="M154.3,5.5l5.1-2.5c0.4-0.2,0.8,0,1,0.4c0,0.2,0,0.2,0,0.4v57c0,0.4-0.4,0.8-0.8,0.8h-5.1
			c-0.4,0-0.8-0.4-0.8-0.8V6.2C153.9,5.9,154.1,5.7,154.3,5.5">
   </path>
   <path class="st0" d="M186.9,35c-0.4,0.2-0.8,0.2-1,0c-1.8-2-4.1-2.9-6.6-2.9c-3.1,0-5.9,1.4-5.9,3.9c0,4.1,5.9,4.7,8.8,5.5
			c5.7,1.4,10.2,3.5,10.2,10.2c0,7.8-7.2,10.9-14.1,10.9c-5.5,0-9.6-1.4-12.9-5.5c-0.2-0.4-0.2-0.8,0.2-1l3.9-3.1
			c0.4-0.2,0.8-0.2,1,0c2,2,4.5,3.7,8,3.7c3.3,0,7-1.4,7-4.3c0-3.9-5.5-4.7-8.4-5.3c-5.7-1.4-10.5-3.1-10.5-10
			c0-7.2,6.6-10.7,13.1-10.7c4.3,0,8.8,1.4,11.5,5.1c0.2,0.4,0.2,0.8-0.2,1L186.9,35z">
   </path>
   <path class="st0" d="M223.8,35.5c-0.4,0.2-0.8,0.2-1,0c-2.1-2.1-5.1-3.5-8.2-3.3c-7.2,0-10.7,5.9-10.7,12.3s4.3,11.7,11.1,11.7
			c2.9,0.2,5.9-1.2,7.8-3.3c0.2-0.4,0.8-0.4,1.2,0l0,0l3.5,3.5c0.2,0.4,0.2,0.8,0,1c-3.3,3.3-7.6,4.7-12.3,4.9
			c-10,0.2-18.4-7.8-18.6-18v-0.2c0-10.7,7.2-18.4,18.2-18.4c4.7-0.2,9.4,1.6,12.7,4.9c0.4,0.4,0.4,0.8,0,1.2l0,0L223.8,35.5z">
   </path>
   <path class="st0" d="M234.9,26.8h5.1c0.4,0,0.8,0.4,0.8,0.8V32h0.2c1.8-3.7,6.1-6.2,10.4-6.2c0.8,0,1.6,0,2.3,0.2
			c0.4,0,0.6,0.4,0.6,0.8l-0.2,5.7c0,0.4-0.4,0.8-0.8,0.8c0,0,0,0-0.2,0c-0.8-0.2-1.6-0.2-2.3-0.2c-6.4,0-10,3.5-10,11.1v16.6
			c0,0.4-0.4,0.8-0.8,0.8h-5.1c-0.4,0-0.8-0.4-0.8-0.8V27.5C234.2,27.1,234.6,26.8,234.9,26.8">
   </path>
   <path class="st0" d="M262.3,9.8c2.5-0.8,5.3,0.6,6.1,2.9c0.8,2.5-0.6,5.3-2.9,6.1c-2.5,0.8-5.3-0.6-6.1-2.9c-0.4-1-0.4-2.1,0-3.1
			C259.7,11.3,260.9,10.2,262.3,9.8 M261.3,26.8h5.1c0.4,0,0.8,0.4,0.8,0.8v33.2c0,0.4-0.4,0.8-0.8,0.8h-5.1c-0.4,0-0.8-0.4-0.8-0.8
			V27.5C260.5,27.1,260.9,26.8,261.3,26.8">
   </path>
   <path class="st0" d="M276,26.8h5.1c0.4,0,0.8,0.4,0.8,0.8v4.3h0.2c2.5-3.7,7.4-5.9,12.1-5.9c10.7,0,17.6,8,17.6,18.2
			c0,10.4-7,18.2-17.6,18.2c-4.9,0-9.8-2.3-12.1-5.9h-0.2v18.4c0,0.2-0.2,0.6-0.4,0.6l-5.1,2.5c-0.4,0.2-0.8,0-1-0.4
			c0-0.2,0-0.2,0-0.4V27.5C275.4,27.1,275.6,26.8,276,26.8L276,26.8 M281.8,43c-0.4,7.6,4.1,13.3,11.5,13.1
			c6.1-0.2,10.9-4.9,11.3-10.9c0.4-7.6-4.1-13.3-11.5-13.1C287.1,32.2,282.2,36.9,281.8,43">
   </path>
   <path class="st0" d="M363.3,35c-0.4,0.2-0.8,0.2-1,0c-1.8-2-4.1-2.9-6.6-2.9c-3.1,0-5.9,1.4-5.9,3.9c0,4.1,5.9,4.7,8.8,5.5
			c5.7,1.4,10.2,3.5,10.2,10.2c0,7.8-7.2,10.9-14.1,10.9c-5.5,0-9.6-1.4-12.9-5.5c-0.2-0.4-0.2-0.8,0.2-1l3.9-3.1
			c0.4-0.2,0.8-0.2,1,0c2,2,4.5,3.7,8,3.7c3.3,0,7-1.4,7-4.3c0-3.9-5.5-4.7-8.4-5.3c-5.7-1.4-10.5-3.1-10.5-10
			c0-7.2,6.6-10.7,13.1-10.7c4.3,0,8.8,1.4,11.5,5.1c0.2,0.4,0.2,0.8-0.2,1L363.3,35z">
   </path>
   <path class="st0" d="M326.5,48.2V34c0-0.4,0.4-0.8,0.8-0.8l0,0h5.9c0.2,0,0.6-0.2,0.6-0.4l2.5-5.1c0.2-0.4,0-0.8-0.4-1
			c-0.2,0-0.2,0-0.4,0h-8.4c-0.4,0-0.8-0.4-0.8-0.8l0,0v-9c0-0.4-0.4-0.8-0.8-0.8c-0.2,0-0.2,0-0.4,0l-5.1,2.5
			c-0.2,0.2-0.4,0.4-0.4,0.6v6.2c0,0.4-0.4,0.8-0.8,0.8h-3.5c-0.4,0-0.8,0.4-0.8,0.8v5.1c0,0.4,0.4,0.8,0.8,0.8h3.5
			c0.4,0,0.8,0.4,0.8,0.8v16.6c0,5.5,0.2,11.7,10.4,11.7c1.8,0,3.7-0.4,5.5-1c0.2-0.2,0.4-0.4,0.4-0.8v-4.3c0-0.4-0.4-0.8-0.8-0.8
			h-0.2c-1.2,0.4-2.3,0.6-3.7,0.6C326.5,56.2,326.5,52.1,326.5,48.2">
   </path>
  </g>
 </g>
</svg>