<svg version="1.2" xmlns="http://www.w3.org/2000/svg" viewBox="0 0 1551 1844" width="1551" height="1844">
	<title>BL_BIG</title>
	<style>
		.s0 { fill: #000000 } 
		.s1 { fill: #fab834 } 
	</style>
	<path class="s0" d="m1525.3 855.8l25-106.9h-56.9v-308.2h31.9l25-113.7h-56.9v-270.1h-1493.4v1786.6h1493.4v-490.8h31.9l25-113.1h-56.9v-383.8z"/>
	<path class="s1" d="m1550.3 138.2v-138.2h-1493.5v547.6c170 144.4 327.5 295.7 478.7 458.8 302.5-326.9 643-616.3 1014.8-868.2z"/>
	<path class="s1" d="m1550.3 981.4v-232.5c-239.3 207.5-459.9 446.3-655.5 698.2 38.1 56.9 81.9 106.9 120 163.8 157.4-226.9 339.9-434.4 535.5-629.5z"/>
	<path class="s1" d="m655.5 1151.4c37.5 50.7 81.8 94.4 119.9 144.5 233.1-282.6 491.2-540.8 774.9-760.8v-208.1c-327.5 239.3-630.5 516.3-894.8 824.4z"/>
	<path class="s1" d="m655.5 1447.1c-38.1-50-81.9-106.9-120-157.5-43.7 50.6-81.8 100.7-119.4 157.5 43.8 56.9 81.9 106.9 119.4 163.8 38.1-50.6 75.6-106.9 120-163.8z"/>
	<path class="s1" d="m775.4 1617.1c-38.1 56.3-82.4 113.2-119.9 176.3h233.1c-37.6-63.1-75.6-120-113.2-176.3z"/>
	<path class="s1" d="m296.2 1617.1c-37.5 56.3-75.6 113.2-113.7 176.3h233.6c-38-63.1-81.8-120-119.9-176.3z"/>
	<path class="s1" d="m1127.9 1787.2h422.4v-553.9c-151.2 176.3-296.2 358.8-422.4 553.9z"/>
	<path class="s1" d="m56.8 1610.9c37.6-56.9 75.7-106.9 113.2-163.8-37.5-50.6-75.6-100.6-113.2-145z"/>
	<path class="s1" d="m289.9 1295.9c37.6-50.1 81.9-100.7 120-144.5-113.7-131.9-233.7-251.9-353.1-371.3v251.9c81.9 81.9 157.5 169.5 233.1 263.9z"/>
</svg>