<svg version="1.1" id="Layer_1" xmlns:x="ns_extend;" xmlns:i="ns_ai;" xmlns:graph="ns_graphs;" xmlns="http://www.w3.org/2000/svg" xmlns:xlink="http://www.w3.org/1999/xlink" x="0px" y="0px" viewBox="0 0 177 50" style="enable-background:new 0 0 177 50;" xml:space="preserve">
 <style type="text/css">
  .st0{fill:#44B6E8;}
	.st1{fill:none;}
	.st2{fill:#248DCD;}
	.st3{fill:#FFFFFF;}
 </style>
 <metadata>
  <sfw xmlns="ns_sfw;">
   <slices>
   </slices>
   <sliceSourceBounds bottomLeftOrigin="true" height="50" width="177" x="289.2" y="0.5">
   </sliceSourceBounds>
  </sfw>
 </metadata>
 <g>
  <g>
   <g>
    <path class="st0" d="M75.2,36.9c-1.9,1.1-4,1.7-6.5,1.7c-7.3,0-11.6-5.1-11.6-13.7c0-6.1,2.4-10.2,5.4-12.3c1.8-1.2,4.4-2,6.6-2
				c1.8,0,3.7,0.4,5.1,1.2c1,0.5,1.5,0.9,2.6,1.9l-3.4,4.6c-1.4-1.3-2.9-2.1-4.2-2.1c-3.1,0-4.5,2.7-4.5,8.9c0,3.5,0.5,5.6,1.4,6.7
				c0.7,0.9,1.9,1.5,3.1,1.5c1.6,0,3.1-0.7,4.8-2.2l0.4-0.4l3.2,4.2C76.6,36,76.1,36.3,75.2,36.9z">
    </path>
    <path class="st0" d="M98.4,34.8c-2,2.3-4.7,3.7-8.8,3.7c-7.2,0-11.9-5.4-11.9-13.8s4.8-13.9,11.9-13.9c3.8,0,6.7,1.3,9,4
				c2.1,2.5,3.1,5.4,3.1,9.7C101.7,29.1,100.6,32.2,98.4,34.8z M92.7,17.4c-0.7-0.9-1.8-1.4-3-1.4c-1.7,0-3,1.1-3.6,2.7
				c-0.5,1.4-0.7,3.3-0.7,5.9c0,3.1,0.3,5.3,0.9,6.7c0.6,1.5,2.2,2.2,3.5,2.2c3,0,4.3-2.7,4.3-9C94.1,20.9,93.6,18.6,92.7,17.4z">
    </path>
    <path class="st0" d="M121.2,38.7c-0.9-0.6-1.6-1.5-2.1-2.6c-1.7,1.7-4.2,2.5-7,2.5c-3.7,0-7-1.8-7.9-4.3
				c-0.4-1.2-0.6-2.6-0.6-5.3V12l6.9-1.3v17.1c0,2.4,0.2,3.6,0.6,4.4c0.4,0.7,1.4,1.2,2.4,1.2c1.7,0,3.8-1.2,4.3-2.5V12.1l6.6-1.4
				V31c0,1.8,0.6,3.6,1.6,4.8L121.2,38.7z">
    </path>
    <path class="st0" d="M148.5,35.5c-1.8,1.9-4.2,3-7.1,3c-2.1,0-4.1-0.5-5.6-1.4c0.1,0.6,0.1,1.4,0.1,2.2v8.3l-6.7,1.8V18.6
				c0-3.5-0.1-4.5-0.4-6.7l6.2-1.1c0.2,0.9,0.4,1.7,0.5,2.5c1.2-1.5,3.8-2.5,6.6-2.5c1.9,0,3.8,0.6,5.3,1.6
				c2.8,1.9,4.9,5.3,4.9,11.5C152.2,29.6,151.3,32.5,148.5,35.5z M144,18.7c-0.5-1.5-1.6-2.2-3.3-2.2c-1.7,0-3.4,0.7-4.6,2v12.9
				c0.9,0.8,2.4,1.5,3.8,1.5c3.4,0,4.8-2.4,4.8-8.4C144.6,22,144.4,20,144,18.7z">
    </path>
    <path class="st0" d="M173.3,39.3c-1.6-0.7-3.1-1.9-3.7-3.2c-0.5,0.5-1.1,1.1-1.6,1.4c-1.3,0.9-3.2,1.5-5.3,1.5
				c-5.9,0-9.2-3-9.2-8.3c0-6.2,4.3-9.2,12.8-9.2c0.5,0,1,0,1.5,0.1v-1.1c0-3-0.6-4-3.1-4c-2.2,0-4.8,1.1-7.7,3l-3-5
				c1.4-0.9,2.4-1.4,4.3-2.2c2.6-1.1,4.8-1.5,7.3-1.5c4.5,0,7.5,1.7,8.6,4.6c0.4,1.1,0.5,1.9,0.5,4.8l-0.2,8.9
				c-0.1,2.9,0.2,4.1,2.5,5.9L173.3,39.3z M167.4,26.3c-4.8,0-6.5,0.9-6.5,4.1c0,2.1,1.3,3.5,3.1,3.5c1.3,0,2.6-0.7,3.6-1.8l0.1-5.7
				H167.4z">
    </path>
   </g>
   <g>
    <path class="st1" d="M49.7,24.6c1.7-0.3,3.3-0.9,4.1-1.9c0.5-0.6,0.7-1.2,0.6-1.9c-0.3-1.7-2.4-2.9-4.8-3.7c1-0.7,1.7-1.4,2-2.2
				c0.3-0.7,0.2-1.5-0.1-2.1c-0.7-1.3-2.7-1.9-5.7-1.9l0,0c0.6-1,1-1.9,1-2.9c0-0.7-0.3-1.4-0.9-1.9c-0.5-0.4-1.3-0.7-2.2-0.7
				c-0.8,0-1.8,0.2-2.9,0.5c0.1-0.9,0-1.6-0.2-2.3c-0.3-1-1-1.5-1.5-1.7c-0.3-0.2-0.7-0.2-1.1-0.2c-1.1,0-2.5,0.6-3.9,1.8
				c-0.6-2.2-1.7-3.5-3.2-3.7c-0.1,0-0.2,0-0.3,0c-1.3,0-2.5,0.9-3.5,2.6c-1.2-1.5-2.5-2.4-3.8-2.4c-0.2,0-0.3,0-0.4,0
				c-0.5,0.1-1.3,0.4-1.9,1.3c-0.4,0.7-0.7,1.6-0.8,2.7c-1.7-1-3.2-1.6-4.4-1.6c-0.5,0-1,0.1-1.4,0.3c-0.7,0.3-1.1,0.9-1.3,1.7
				c-0.2,0.8-0.1,1.8,0.2,2.8C12.5,7.1,11.5,7,10.6,7c-1.4,0-2.4,0.3-3.1,1C7,8.5,6.7,9.2,6.8,10c0.2,1,0.9,2.1,2,3.2
				c-3,0.3-6.2,1.1-7,2.9c-0.3,0.6-0.2,1.4,0.1,2c0.6,1.1,1.9,1.9,3.5,2.5C2.4,22.3,0,24.1,0,26c0,1.4,1.1,3,6.1,3
				c0.4,0,0.8,0,1.3,0c-2.8,2.8-5.3,6.2-4,8.4c0.4,0.6,1.1,1.3,2.8,1.3c1.5,0,3.5-0.6,5.8-1.7c-1.1,2.7-1.6,5.2-1.2,6.9
				c0.2,1.1,0.9,1.7,1.3,2c0.4,0.2,0.9,0.4,1.5,0.4c2.1,0,4.9-2.2,7.7-5.3c0.2,3.3,0.8,6.3,2.2,7.9c0.8,0.9,1.6,1.1,2.2,1.1
				c0,0,0.1,0,0.1,0c2.8,0,4.6-3.8,5.7-7.5c1.9,3.2,4,5.4,6,5.4c0.4,0,0.7-0.1,1.1-0.2c2.4-1,2.7-5,2.1-9.4c2.4,1.8,4.6,2.8,6.2,2.8
				l0,0c1.1,0,1.8-0.5,2.2-0.9c1.5-1.7,0.3-4.9-1.4-7.6c1,0.2,1.9,0.3,2.8,0.3l0,0c2.5,0,3.4-1.1,3.6-2C54.4,29,52.4,26.7,49.7,24.6
				z">
    </path>
   </g>
  </g>
  <path class="st0" d="M41.5,21.1c-0.9-0.4-1.8-0.8-2.6-1.2c0.9-0.2,1.7-0.4,2.6-0.6c6-1.7,9.9-4.3,8.9-5.8c-0.9-1.5-6-1.7-11.8-0.3
		c-0.8,0.2-1.6,0.4-2.4,0.6c0.4-0.6,0.8-1.2,1.1-1.9c2.4-4.3,2.9-7.9,1.3-8.6C37.1,2.6,33.9,5,31.1,9c-0.4,0.6-0.8,1.2-1.1,1.8
		c-0.2-0.6-0.4-1.3-0.6-2c-1.7-4.5-4.3-7.7-6.1-7.4c-1.8,0.3-2.3,4-1,8.8c0.2,0.7,0.4,1.4,0.7,2.1c-0.7-0.4-1.5-0.8-2.3-1.2
		c-5.6-2.7-11-3.7-12.4-2.3c-1.5,1.4,1.9,4.9,7.9,7.9c0.8,0.4,1.7,0.8,2.5,1.2c-1,0.2-2,0.4-3,0.6C7.8,20.4,1.1,23.7,1.2,26
		c0.1,2.4,7.5,2.3,15.9,0c1.1-0.3,2.2-0.6,3.2-1c-0.6,0.8-1.3,1.7-1.9,2.7c-5.1,7.5-8.1,15.7-5.7,17.2c2.4,1.5,8.8-5,13.4-13
		c0.6-1,1.1-2,1.5-3c0.2,1,0.5,2.1,0.8,3.2c2.4,8.6,6.8,15.6,9.5,14.5c2.6-1.1,1.9-9.3-1-17.3c-0.4-1-0.8-2-1.2-2.9
		c0.9,0.5,1.8,1,2.7,1.5c7.1,3.6,13.6,4.8,14.2,2.6C53.2,28.5,48.1,24.3,41.5,21.1z">
  </path>
  <g id="Layer_2_3_">
   <path class="st2" d="M22.4,23.6c-0.8,0.2-1.6,0.5-2.4,0.7c-2.5,0.7-4.9,1.1-6.9,1.2C7.3,30,3.3,34.8,4.4,36.7
			c1.1,1.9,6.7-0.2,12.8-4.1c0.8-2.1,2-4.6,3.7-7C21.4,24.9,21.9,24.2,22.4,23.6z">
   </path>
   <path class="st2" d="M21,18.2c-0.6-0.3-1.3-0.6-2-0.9c-1.9-1-3.5-2-4.6-3C8.6,14.1,3.7,15,3,16.7c-0.7,1.6,3,3.4,8.7,4.4
			c1.9-0.9,4.4-1.8,7-2.4C19.5,18.5,20.3,18.3,21,18.2z">
   </path>
   <path class="st2" d="M24.3,13.8c-0.2-0.6-0.4-1.1-0.6-1.7C23.3,10.5,23,9,23,7.8c-3.2-2.8-6.5-4.4-7.9-3.7
			c-1.4,0.7-0.7,3.4,1.6,6.7c1.7,0.4,3.7,1.1,5.7,2C23.1,13.1,23.7,13.4,24.3,13.8z">
   </path>
   <path class="st2" d="M34.8,14.8c0.6-0.2,1.3-0.4,1.9-0.5c1.9-0.5,3.7-0.7,5.2-0.7c3.1-2.8,4.4-5.4,3.2-6.4C44.1,6.3,41,7,37.5,8.9
			c-0.2,1.2-0.9,2.8-1.8,4.4C35.4,13.9,35.1,14.4,34.8,14.8z">
   </path>
   <path class="st2" d="M28,26.5c-0.3,0.7-0.7,1.4-1.2,2.2C25.5,31,24,33,22.5,34.6c-0.6,7.5,0.5,14,3,14.2c2.4,0.1,4.9-5.7,6-12.8
			c-1.1-1.9-2.2-4.4-3-7.1C28.3,28,28.1,27.3,28,26.5z">
   </path>
   <path class="st2" d="M29.8,12.5c0.3-0.5,0.6-1,0.9-1.5c0.9-1.4,1.9-2.5,2.9-3.4c-0.1-3.6-1.1-6.2-2.6-6.4c-1.4-0.2-3,1.9-3.9,5.3
			c0.8,1.1,1.6,2.6,2.2,4.3C29.5,11.4,29.7,12,29.8,12.5z">
   </path>
   <path class="st2" d="M53.2,21.1c-0.2-1.5-4-3.1-8.9-4c-1.3,0.8-3.2,1.5-5.4,2.2c-0.7,0.2-1.4,0.3-2.1,0.5c0.6,0.3,1.4,0.6,2,0.9
			c2,1,3.8,2.1,5.3,3.2C49.6,23.9,53.5,22.8,53.2,21.1z">
   </path>
   <path class="st2" d="M34.1,24.7c0.3,0.7,0.6,1.4,0.9,2.2c0.8,2.3,1.4,4.6,1.6,6.6c4.9,4.9,9.8,7.6,11.3,6c1.3-1.5-1-6.2-4.9-11
			c-1.9-0.4-4.3-1.3-6.7-2.5C35.5,25.5,34.8,25.1,34.1,24.7z">
   </path>
  </g>
  <path class="st3" d="M44,23.8c-1.4-1.1-3.2-2.2-5.3-3.2c-0.7-0.3-1.4-0.6-2-0.9c0.7-0.1,1.4-0.3,2.1-0.5c2.3-0.6,4.1-1.4,5.4-2.2
		c1.5-0.9,2.3-1.8,1.9-2.5c-0.4-0.7-2-1.1-4.2-1c-1.5,0.1-3.3,0.3-5.2,0.7c-0.7,0.2-1.3,0.3-1.9,0.5c0.3-0.5,0.6-1,1-1.5
		c1-1.6,1.5-3.2,1.8-4.4c0.3-1.4,0.1-2.4-0.6-2.7c-0.7-0.3-2,0.2-3.3,1.5c-1,0.8-1.9,2-2.9,3.4c-0.3,0.5-0.6,1-0.9,1.5
		c-0.2-0.5-0.3-1.1-0.5-1.6c-0.6-1.8-1.4-3.2-2.2-4.3c-0.9-1.2-1.9-1.9-2.7-1.8c-0.8,0.2-1.3,1.3-1.3,3c0,1.2,0.2,2.7,0.7,4.3
		c0.2,0.6,0.3,1.1,0.6,1.7c-0.6-0.3-1.2-0.6-1.8-0.9c-2-1-4.1-1.7-5.7-2c-2-0.4-3.6-0.4-4.1,0.2c-0.6,0.7,0.1,1.9,1.7,3.3
		c1.1,1,2.7,2,4.6,3c0.6,0.3,1.3,0.6,2,0.9c-0.7,0.1-1.5,0.3-2.3,0.5c-2.7,0.6-5.1,1.5-7,2.4c-2.3,1.1-3.8,2.3-3.7,3.2
		c0.1,1.1,2.1,1.5,5,1.3c2-0.1,4.4-0.5,6.9-1.2c0.8-0.2,1.6-0.5,2.4-0.7c-0.5,0.6-1,1.3-1.4,2c-1.6,2.4-2.9,4.9-3.7,7
		c-1,2.6-1.1,4.6-0.1,5.2c1.1,0.6,3.2-0.7,5.4-3.2c1.5-1.6,2.9-3.6,4.3-5.9c0.4-0.7,0.8-1.5,1.2-2.2c0.2,0.7,0.3,1.5,0.6,2.3
		c0.8,2.8,1.9,5.3,3,7.1c1.4,2.3,2.8,3.6,3.9,3.2c1.1-0.4,1.5-2.7,1.1-5.8c-0.2-2-0.8-4.2-1.6-6.6c-0.3-0.8-0.6-1.5-0.9-2.2
		c0.6,0.4,1.4,0.8,2.1,1.1c2.4,1.2,4.8,2.1,6.7,2.5c2.3,0.5,3.9,0.4,4.2-0.5C47.4,26.9,46.2,25.4,44,23.8z">
  </path>
 </g>
</svg>