<?xml version="1.0" encoding="UTF-8"?>
<svg id="uuid-28a233c3-b67c-4064-9ff0-ab21dd0dce61" data-name="Layer 1" xmlns="http://www.w3.org/2000/svg" viewBox="0 0 1080 262">
  <defs>
    <style>
      .uuid-0ababaad-0376-4008-bd6b-390428c19eca {
        fill: #7100eb;
        stroke-width: 0px;
      }
    </style>
  </defs>
  <path class="uuid-0ababaad-0376-4008-bd6b-390428c19eca" d="M170.277,6.08h39.96v252h-39.96V6.08ZM231.834,258.08h39.96V6.08h-39.96v252ZM419.03,197.24c-9,15.12-26.28,24.481-43.919,24.481-25.201,0-41.76-17.28-41.76-45.721v-93.96h-39.96v100.44c0,48.6,27.72,79.2,72,79.2,21.96,0,43.2-10.44,53.639-27.36v23.76h40.32V82.04h-40.32v115.2ZM562.668,223.16c-29.16,0-51.48-23.04-51.48-52.921,0-30.24,22.32-53.28,51.48-53.28,20.879,0,38.879,11.88,43.2,28.08h41.04c-5.4-38.16-41.76-66.6-84.24-66.6-51.48,0-91.08,39.6-91.08,91.8s39.6,91.44,91.08,91.44c42.84,0,79.919-28.08,84.599-68.04h-41.04c-4.319,17.64-22.68,29.521-43.559,29.521ZM659.869,258.08h39.96V82.04h-39.96v176.04ZM680.029.32c-14.039,0-25.559,11.88-25.559,25.56,0,14.4,11.52,25.92,25.559,25.92s25.92-11.52,25.92-25.92c0-13.68-11.88-25.56-25.92-25.56ZM853.186,82.04h40.319v176.04h-40.319v-24.48c-8.64,16.2-32.4,28.08-56.16,28.08-47.88,0-84.6-40.32-84.6-91.8,0-51.12,36.721-91.44,84.6-91.44,23.76,0,47.52,11.88,56.16,28.08v-24.48ZM853.186,143.96c-8.28-15.84-27.72-27.36-47.88-27.36-30.24,0-53.64,22.68-53.64,53.28s23.401,53.64,53.64,53.64c20.16,0,39.24-11.52,47.88-27.001v-52.56ZM1008,78.44c-21.961,0-42.48,10.44-53.281,27v-23.4h-40.319v176.04h40.319v-115.56c9.36-14.76,25.92-24.12,43.56-24.12,25.2,0,41.76,17.28,41.76,45.72v93.96h39.961v-100.44c0-48.6-27.72-79.2-72-79.2ZM0,42.08h148.68V6.08H0v36ZM36,114.08h76.68v36H36v36h112.68v-108H36v36ZM0,258.08h148.68v-36H0v36Z"/>
</svg>