<svg version="1.1" id="Layer_1" xmlns:x="ns_extend;" xmlns:i="ns_ai;" xmlns:graph="ns_graphs;" xmlns="http://www.w3.org/2000/svg" xmlns:xlink="http://www.w3.org/1999/xlink" x="0px" y="0px" viewBox="0 0 544 71" style="enable-background:new 0 0 544 71;" xml:space="preserve">
 <style type="text/css">
  .st0{fill:#025064;}
 </style>
 <metadata>
  <sfw xmlns="ns_sfw;">
   <slices>
   </slices>
   <sliceSourceBounds bottomLeftOrigin="true" height="71" width="544" x="-203.8" y="-26.7">
   </sliceSourceBounds>
  </sfw>
 </metadata>
 <g>
  <path class="st0" d="M418.6,50.9c0,0.5-0.1,1-0.2,1.5c-0.2,0.5-0.5,0.9-0.8,1.3c-0.4,0.4-0.8,0.6-1.3,0.8c-0.5,0.2-1,0.3-1.5,0.2
		h-45.5c-1,0-1.9-0.5-2.6-1.2c-0.7-0.7-1.1-1.7-1.1-2.7V20.1c0-0.5,0.1-1,0.3-1.4c0.2-0.4,0.5-0.9,0.8-1.2c0.3-0.3,0.8-0.6,1.2-0.8
		c0.4-0.2,0.9-0.3,1.4-0.3h45.5c0.5,0,1,0.1,1.5,0.2c0.5,0.2,0.9,0.4,1.3,0.8c0.4,0.3,0.6,0.8,0.8,1.2c0.2,0.5,0.3,1,0.3,1.5V50.9z
		 M528.2,49.7c9.3-1.4,13.9-7.8,13.9-17.4V17.6c0-11.3-6.5-17.6-17.6-17.6h-69.4v71h17.4V16.4h48.3c0.5,0,1,0.1,1.4,0.2
		c0.5,0.2,0.9,0.4,1.2,0.8c0.3,0.3,0.6,0.8,0.8,1.2c0.2,0.5,0.3,1,0.2,1.4v9.7c0,0.5-0.1,1-0.2,1.4c-0.2,0.5-0.5,0.9-0.8,1.2
		c-0.4,0.3-0.8,0.6-1.2,0.8c-0.5,0.2-1,0.3-1.4,0.2h-41.1v16.4h28.2L522.7,71H544L528.2,49.7z M365.7,0c-11.3,0-17.6,6.5-17.6,17.6
		v35.6c0,11.3,6.5,17.6,17.6,17.6h52.7c11.1,0,17.6-6.5,17.6-17.6V17.6C436,6.3,429.5,0,418.4,0H365.7z M251.1,53.2
		c0,11.3,6.5,17.6,17.6,17.6H330V54.6h-57.6c-0.5,0-1-0.1-1.5-0.3c-0.5-0.2-0.9-0.5-1.2-0.8c-0.3-0.4-0.6-0.8-0.8-1.3
		c-0.2-0.5-0.3-1-0.2-1.5V20.1c0-1,0.4-1.9,1.1-2.6c0.7-0.7,1.6-1.1,2.6-1.1h57.8V0h-61.5c-11.3,0-17.6,6.5-17.6,17.6V53.2z M232,0
		h-17.6v71H232V0z M109,0v71h17.6V16.4h47.9c0.5-0.1,1,0,1.5,0.2c0.5,0.2,0.9,0.4,1.3,0.8c0.4,0.4,0.7,0.8,0.8,1.3
		c0.2,0.5,0.3,1,0.2,1.5v9.7c0,0.5-0.1,1-0.2,1.5c-0.2,0.5-0.5,0.9-0.8,1.3c-0.4,0.4-0.8,0.6-1.3,0.8c-0.5,0.2-1,0.2-1.5,0.2H135
		v16.4h43.3c11.3,0,17.6-6.5,17.6-17.6V17.6c0-11.3-6.5-17.6-17.6-17.6H109z M17.6,0C6.3,0,0,6.5,0,17.6v35.6
		c0,11.3,6.5,17.6,17.6,17.6H86v-15H21.2c-0.5,0-1-0.1-1.4-0.3c-0.4-0.2-0.9-0.5-1.2-0.8c-0.3-0.3-0.6-0.8-0.8-1.2
		c-0.2-0.4-0.3-0.9-0.3-1.4V18.7c0-0.5,0.1-1,0.2-1.5c0.2-0.5,0.4-0.9,0.8-1.3c0.3-0.4,0.8-0.7,1.2-0.8c0.5-0.2,1-0.3,1.5-0.3h45.5
		c0.5,0,1,0.1,1.5,0.2c0.5,0.2,0.9,0.5,1.3,0.8c0.4,0.4,0.6,0.8,0.8,1.3c0.2,0.5,0.3,1,0.2,1.5v6.5c0,0.5-0.1,1-0.3,1.4
		c-0.2,0.5-0.5,0.9-0.9,1.2c-0.4,0.3-0.8,0.6-1.3,0.7c-0.5,0.2-1,0.2-1.5,0.2H24.7v15h45.6c11.3,0,17.6-6.7,17.6-17.6v-8.5
		C87.9,6.3,81.4,0,70.3,0H17.6z">
  </path>
 </g>
</svg>