<svg version="1.1" id="Layer_1" xmlns="http://www.w3.org/2000/svg" xmlns:xlink="http://www.w3.org/1999/xlink" x="0px" y="0px" viewBox="0 0 63.9 63.9" style="enable-background:new 0 0 63.9 63.9;" xml:space="preserve">
 <style type="text/css">
  .st0{fill:#005A96;}
	.st1{fill:#A0AB57;}
 </style>
 <g>
  <g>
   <path class="st0" d="M5.2,17.8c2.9,0,5.2,2.3,5.2,5.2c0,2.9-2.3,5.2-5.2,5.2C2.3,28.3,0,25.9,0,23C0,20.1,2.3,17.8,5.2,17.8">
   </path>
  </g>
  <g>
   <path class="st0" d="M14.1,26.7c2.9,0,5.2,2.3,5.2,5.2s-2.3,5.2-5.2,5.2c-2.9,0-5.2-2.3-5.2-5.2C8.9,29,11.2,26.7,14.1,26.7">
   </path>
   <path class="st0" d="M23,35.6c2.9,0,5.2,2.3,5.2,5.2s-2.3,5.2-5.2,5.2c-2.9,0-5.2-2.3-5.2-5.2C17.8,37.9,20.1,35.6,23,35.6">
   </path>
   <path class="st0" d="M23,53.4c2.9,0,5.2,2.3,5.2,5.2c0,2.9-2.3,5.2-5.2,5.2c-2.9,0-5.2-2.3-5.2-5.2C17.8,55.7,20.1,53.4,23,53.4">
   </path>
   <path class="st0" d="M31.9,44.5c2.9,0,5.2,2.3,5.2,5.2c0,2.9-2.3,5.2-5.2,5.2c-2.9,0-5.2-2.3-5.2-5.2C26.7,46.8,29,44.5,31.9,44.5
			">
   </path>
   <path class="st0" d="M40.8,35.6c2.9,0,5.2,2.3,5.2,5.2s-2.3,5.2-5.2,5.2c-2.9,0-5.2-2.3-5.2-5.2C35.6,37.9,37.9,35.6,40.8,35.6">
   </path>
   <path class="st1" d="M23,17.8c2.9,0,5.2,2.3,5.2,5.2c0,2.9-2.3,5.2-5.2,5.2c-2.9,0-5.2-2.3-5.2-5.2C17.8,20.1,20.1,17.8,23,17.8">
   </path>
   <path class="st1" d="M31.9,8.9c2.9,0,5.2,2.3,5.2,5.2c0,2.9-2.3,5.2-5.2,5.2c-2.9,0-5.2-2.3-5.2-5.2C26.7,11.2,29,8.9,31.9,8.9">
   </path>
   <path class="st1" d="M40.8,17.8c2.9,0,5.2,2.3,5.2,5.2c0,2.9-2.3,5.2-5.2,5.2c-2.9,0-5.2-2.3-5.2-5.2
			C35.6,20.1,37.9,17.8,40.8,17.8">
   </path>
   <path class="st1" d="M49.7,26.7c2.9,0,5.2,2.3,5.2,5.2s-2.3,5.2-5.2,5.2c-2.9,0-5.2-2.3-5.2-5.2C44.5,29,46.8,26.7,49.7,26.7">
   </path>
   <path class="st1" d="M58.6,35.6c2.9,0,5.2,2.3,5.2,5.2c0,2.9-2.3,5.2-5.2,5.2c-2.9,0-5.2-2.3-5.2-5.2
			C53.4,37.9,55.7,35.6,58.6,35.6">
   </path>
   <path class="st1" d="M40.8,0c2.9,0,5.2,2.3,5.2,5.2s-2.3,5.2-5.2,5.2c-2.9,0-5.2-2.3-5.2-5.2C35.6,2.3,37.9,0,40.8,0">
   </path>
   <path class="st1" d="M51.9,46.7c0,1.1-0.9,2.1-2.1,2.1c-1.2,0-2.1-0.9-2.1-2.1c0-1.2,0.9-2.1,2.1-2.1C51,44.6,51.9,45.5,51.9,46.7
			 M51.6,46.7c0-1-0.7-1.8-1.8-1.8c-1,0-1.8,0.8-1.8,1.8s0.8,1.8,1.8,1.8C50.8,48.5,51.6,47.7,51.6,46.7 M49.4,47.9h-0.3v-2.5h1
			c0.6,0,0.8,0.2,0.8,0.7c0,0.4-0.3,0.6-0.6,0.7l0.7,1.1h-0.4l-0.7-1.1h-0.5V47.9z M49.8,46.5c0.3,0,0.7,0,0.7-0.4
			c0-0.3-0.3-0.4-0.5-0.4h-0.5v0.8H49.8z">
   </path>
  </g>
 </g>
</svg>